<?xml version="1.0" encoding="UTF-8"?>
<svg id="Layer_1" xmlns="http://www.w3.org/2000/svg" version="1.1" viewBox="0 0 405.13 435.45">
  <!-- Generator: Adobe Illustrator 29.6.1, SVG Export Plug-In . SVG Version: 2.1.1 Build 9)  -->
  <defs>
    <style>
      .st0 {
        stroke: currentColor;
        fill: none;
        stroke-miterlimit: 10;
        stroke-width: 13px;
      }

      .st1 {
        stroke: currentColor;
        fill-rule: evenodd;
      }
    </style>
  </defs>
  <path class="st0" d="M395.41,303.5v-172.65c0-13.37-7.23-25.7-18.89-32.23L220.61,11.33c-11.21-6.28-24.88-6.28-36.09,0L28.61,98.62c-11.67,6.53-18.89,18.86-18.89,32.23v172.65c0,13.37,7.23,25.7,18.89,32.23l155.9,87.29c11.21,6.28,24.88,6.28,36.09,0l155.9-87.29c11.67-6.53,18.89-18.86,18.89-32.23Z"/>
  <path class="st0" d="M202.56,281.94c-35.77,0-64.76-28.99-64.76-64.76s28.99-64.76,64.76-64.76c19.97,0,37.83,9.04,49.7,23.25l47.82-27.6c-21.66-30.5-57.26-50.4-97.52-50.4-66.01,0-119.51,53.5-119.51,119.51s53.5,119.51,119.51,119.51c40.26,0,75.86-19.9,97.52-50.4l-47.82-27.6c-11.87,14.21-29.73,23.25-49.7,23.25Z"/>
  <g id="Page-1">
    <g id="Dribbble-Light-Preview">
      <g id="icons">
        <polygon id="plus_x5F_mini-_x5B__x23_1523_x5D_" class="st1" points="314.61 210.02 314.61 224.33 293.76 224.33 293.76 245.8 279.86 245.8 279.86 224.33 259.01 224.33 259.01 210.02 279.86 210.02 279.86 188.55 293.76 188.55 293.76 210.02 314.61 210.02"/>
      </g>
    </g>
  </g>
  <g id="Page-11" data-name="Page-1">
    <g id="Dribbble-Light-Preview1" data-name="Dribbble-Light-Preview">
      <g id="icons1" data-name="icons">
        <polygon id="plus_x5F_mini-_x5B__x23_1523_x5D_1" data-name="plus_x5F_mini-_x5B__x23_1523_x5D_" class="st1" points="380.32 210.02 380.32 224.33 359.38 224.33 359.38 245.8 345.42 245.8 345.42 224.33 324.48 224.33 324.48 210.02 345.42 210.02 345.42 188.55 359.38 188.55 359.38 210.02 380.32 210.02"/>
      </g>
    </g>
  </g>
</svg>